<?xml version="1.0" ?>
<!-- Uploaded to: SVG Repo, www.svgrepo.com, Generator: SVG Repo Mixer Tools -->
<svg width="800px" height="800px" viewBox="0 -10.5 56 56" version="1.1" xmlns="http://www.w3.org/2000/svg" xmlns:xlink="http://www.w3.org/1999/xlink">
<title/>
<desc/>
<g fill="none" fill-rule="evenodd" id="Page-1" stroke="none" stroke-width="1">
<g fill="#000000" id="011---Camera">
<path d="M12,9 L5,9 C4.44771525,9 4,9.44771525 4,10 C4,10.5522847 4.44771525,11 5,11 L12,11 C12.5522847,11 13,10.5522847 13,10 C13,9.44771525 12.5522847,9 12,9 Z" id="Path"/>
<path d="M35,9 C28.9248678,9 24,13.9248678 24,20 C24,26.0751322 28.9248678,31 35,31 C41.0751322,31 46,26.0751322 46,20 C45.9961387,13.9264679 41.0735321,9.00386129 35,9 Z M35,29 C30.0294373,29 26,24.9705627 26,20 C26,15.0294373 30.0294373,11 35,11 C39.9705627,11 44,15.0294373 44,20 C43.992291,24.9673661 39.9673661,28.992291 35,29 Z" fill-rule="nonzero" id="Shape"/>
<path d="M35,13 C31.1340068,13 28,16.1340068 28,20 C28,23.8659932 31.1340068,27 35,27 C38.8659932,27 42,23.8659932 42,20 C41.9955914,16.1358343 38.8641657,13.0044086 35,13 Z M35,25 C34.1221934,25.0008113 33.2597555,24.7696779 32.5,24.33 C32.0225843,24.0514986 31.8576996,23.4409795 32.13,22.96 C32.263628,22.7302558 32.4832172,22.5631582 32.7402702,22.4956114 C32.9973232,22.4280647 33.2706913,22.4656261 33.5,22.6 C33.9568504,22.8611601 34.473772,22.9990058 35,23 C35.5522847,23 36,23.4477153 36,24 C36,24.5522847 35.5522847,25 35,25 Z M35,17 C33.3451972,17.0049422 32.0049422,18.3451972 32,20 C32,20.5522847 31.5522847,21 31,21 C30.4477153,21 30,20.5522847 30,20 C30,17.2385763 32.2385763,15 35,15 C35.5522847,15 36,15.4477153 36,16 C36,16.5522847 35.5522847,17 35,17 Z" fill-rule="nonzero" id="Shape"/>
<path d="M54,5 L2,5 C0.896798134,5.0032948 0.00329480111,5.89679813 0,7 L0,33 C0.00329480111,34.1032019 0.896798134,34.9967052 2,35 L54,35 C55.1032019,34.9967052 55.9967052,34.1032019 56,33 L56,7 C55.9967052,5.89679813 55.1032019,5.0032948 54,5 Z M4,31 C4,31.5522847 3.55228475,32 3,32 C2.44771525,32 2,31.5522847 2,31 L2,23 C2,22.4477153 2.44771525,22 3,22 C3.55228475,22 4,22.4477153 4,23 L4,31 Z M4,19 C4,19.5522847 3.55228475,20 3,20 C2.44771525,20 2,19.5522847 2,19 L2,17 C2,16.4477153 2.44771525,16 3,16 C3.55228475,16 4,16.4477153 4,17 L4,19 Z M12,13 L5,13 C3.34314575,13 2,11.6568542 2,10 C2,8.34314575 3.34314575,7 5,7 L12,7 C13.6568542,7 15,8.34314575 15,10 C15,11.6568542 13.6568542,13 12,13 Z M35,33 C27.8202983,33 22,27.1797017 22,20 C22,12.8202983 27.8202983,7 35,7 C42.1797017,7 48,12.8202983 48,20 C47.9933843,27.1769596 42.1769596,32.9933843 35,33 Z" fill-rule="nonzero" id="Shape"/>
<path d="M32.879,0.293 C32.6915073,0.105450625 32.4371948,5.66374055e-05 32.172,0 L23.829,0 C23.5634587,-0.000208753997 23.3087377,0.105205444 23.121,0.293 L20.414,3 L35.586,3 L32.879,0.293 Z" id="Path"/>
</g>
</g>
</svg>