<?xml version="1.0" encoding="iso-8859-1"?>
<!-- Uploaded to: SVG Repo, www.svgrepo.com, Generator: SVG Repo Mixer Tools -->
<svg version="1.1" id="Layer_1" xmlns="http://www.w3.org/2000/svg" xmlns:xlink="http://www.w3.org/1999/xlink" 
	 viewBox="0 0 511.999 511.999" xml:space="preserve">
<circle style="fill:#898890;" cx="366.044" cy="93.623" r="86"/>
<rect x="263.275" y="423.152" style="fill:#D8D8DA;" width="35.251" height="81.225"/>
<rect x="263.275" y="423.152" style="fill:#C6C5CB;" width="35.251" height="19.559"/>
<rect x="108.043" y="179.623" style="fill:#57565C;" width="345.719" height="216.495"/>
<rect x="281.396" y="238.437" style="fill:#D8D8DA;" width="137.202" height="98.857"/>
<g>
	<rect x="281.396" y="238.437" style="fill:#C6C5CB;" width="137.202" height="18.178"/>
	<rect x="281.396" y="319.122" style="fill:#C6C5CB;" width="137.202" height="18.178"/>
</g>
<g>
	<rect x="108.043" y="179.623" style="fill:#3E3D43;" width="345.719" height="21.526"/>
	<rect x="108.043" y="374.765" style="fill:#3E3D43;" width="345.719" height="21.525"/>
</g>
<polygon style="fill:#898890;" points="17.187,358.571 78.713,336.806 78.713,238.927 17.187,217.162 "/>
<polygon style="fill:#77767E;" points="62.4,342.422 78.713,337.295 78.713,238.927 62.4,233.8 "/>
<rect x="453.762" y="217.166" style="fill:#898890;" width="41.049" height="141.41"/>
<rect x="453.762" y="217.166" style="fill:#77767E;" width="16.434" height="141.41"/>
<g>
	<rect x="227.927" y="396.108" style="fill:#2E2E30;" width="106.936" height="27.041"/>
	<rect x="78.682" y="238.437" style="fill:#2E2E30;" width="29.358" height="98.857"/>
</g>
<path style="fill:#C60024;" d="M227.624,275.712c0-10.546-8.3-19.095-18.847-19.095c-7.344,0-13.718,4.147-16.913,10.225
	c-3.194-6.079-9.57-10.225-16.913-10.225c-10.546,0-18.806,8.549-18.806,19.095c0,4.992,1.448,7.81,2.62,10.184
	c4.839,9.801,33.099,33.22,33.099,33.22s28.486-23.486,33.099-33.22C226.09,283.519,227.624,280.484,227.624,275.712z"/>
<circle style="fill:#ACABB1;" cx="366.044" cy="93.623" r="68.113"/>
<circle style="fill:#898890;" cx="194.044" cy="93.623" r="86"/>
<circle style="fill:#ACABB1;" cx="194.044" cy="93.623" r="68.113"/>
<g>
	<circle style="fill:#FFFFFF;" cx="194.044" cy="93.623" r="16.109"/>
	<circle style="fill:#FFFFFF;" cx="366.044" cy="93.623" r="16.109"/>
</g>
<path d="M456.458,148.111l10.78,10.779c17.482-17.483,27.11-40.709,27.11-65.402s-9.629-47.919-27.11-65.402l-10.78,10.779
	c14.603,14.603,22.646,34.002,22.646,54.623S471.062,133.508,456.458,148.111z"/>
<path d="M502.434,209.539h-41.048v-37.541h-44.201c25.556-16.734,42.477-45.615,42.477-78.377C459.662,41.998,417.663,0,366.04,0
	c-38.494,0-71.631,23.355-85.999,56.636C265.672,23.355,232.534,0,194.04,0c-51.624,0-93.622,41.998-93.622,93.622
	c0,32.763,16.92,61.643,42.477,78.377h-42.477v58.818H78.641L9.565,206.38v162.973l69.077-24.436h21.778v58.818h119.883v27.041
	h35.352v81.224h50.497v-81.224h36.333v-27.041h118.902v-37.541h41.048V209.539z M366.04,15.245
	c43.217,0,78.377,35.159,78.377,78.377s-35.16,78.377-78.377,78.377s-78.377-35.16-78.377-78.377S322.823,15.245,366.04,15.245z
	 M314.894,171.999h-69.708c15.315-10.028,27.526-24.417,34.854-41.391C287.368,147.582,299.579,161.971,314.894,171.999z
	 M115.663,93.622c0-43.217,35.16-78.377,78.377-78.377s78.377,35.159,78.377,78.377s-35.16,78.377-78.377,78.377
	S115.663,136.838,115.663,93.622z M24.809,227.943l46.252,16.362v87.123l-46.252,16.362
	C24.809,347.789,24.809,227.943,24.809,227.943z M86.336,329.673V246.06h14.083v83.612H86.336z M290.906,496.755h-20.007v-65.979
	h20.007V496.755z M327.239,415.532h-21.088h-50.497h-20.108v-11.796h91.693V415.532z M446.142,388.49H342.484H220.302H115.663
	v-43.573V230.815v-43.573h330.478v22.296v156.655V388.49z M487.19,350.949h-25.803V224.784h25.803V350.949z"/>
<path d="M426.217,230.816H273.77v114.101h152.447V230.816z M410.972,329.673H289.015V246.06h121.958V329.673z"/>
<path d="M208.777,248.995c-6.291,0-12.225,2.187-16.913,6.023c-4.687-3.836-10.621-6.023-16.913-6.023
	c-14.573,0-26.429,11.985-26.429,26.718c0,6.663,2.005,10.719,3.33,13.404l0.076,0.155c5.29,10.716,30.143,31.632,35.072,35.715
	l4.851,4.021l4.86-4.007c4.976-4.103,30.055-25.111,35.138-35.836l0.127-0.267c1.301-2.737,3.268-6.872,3.268-13.183
	C235.246,260.98,223.372,248.995,208.777,248.995z M218.21,282.347l-0.136,0.287c-2.313,4.882-15.402,17.236-26.199,26.507
	c-10.746-9.273-23.824-21.653-26.276-26.618l-0.079-0.161c-0.98-1.983-1.754-3.549-1.754-6.65c0-6.433,4.913-11.473,11.185-11.473
	c4.277,0,8.172,2.356,10.166,6.15l6.747,12.838l6.747-12.838c1.994-3.793,5.89-6.15,10.166-6.15c6.294,0,11.224,5.04,11.224,11.473
	C220.001,278.581,219.172,280.326,218.21,282.347z"/>
<rect x="387.356" y="366.97" width="51.787" height="15.245"/>
<rect x="170.12" y="193.516" width="57.841" height="15.245"/>
<rect x="148.594" y="193.516" width="13.451" height="15.245"/>
<path d="M194.04,69.891c-13.085,0-23.731,10.646-23.731,23.731s10.646,23.731,23.731,23.731c13.085,0,23.731-10.646,23.731-23.731
	C217.771,80.537,207.126,69.891,194.04,69.891z M194.04,102.108c-4.679,0-8.486-3.807-8.486-8.486c0-4.679,3.807-8.486,8.486-8.486
	s8.486,3.807,8.486,8.486C202.527,98.301,198.72,102.108,194.04,102.108z"/>
<path d="M366.04,117.353c13.085,0,23.731-10.646,23.731-23.731s-10.646-23.731-23.731-23.731s-23.731,10.646-23.731,23.731
	C342.309,106.707,352.955,117.353,366.04,117.353z M366.04,85.135c4.679,0,8.486,3.807,8.486,8.486s-3.807,8.486-8.486,8.486
	s-8.486-3.807-8.486-8.486C357.554,88.943,361.361,85.135,366.04,85.135z"/>
</svg>